<svg xmlns="http://www.w3.org/2000/svg" viewBox="0 0 118.3 185.91">
    <title>
        YUMEMI
    </title>
    <path d="M95.61 37.33S86.94 136.05 57.94 136c-34.13-.07-7.93-69.07-7.93-69.07s-7 39.2 10.27 39.4c23.67.27 35.33-69 35.33-69z"/>
    <path d="M91.61 44.33S37.28 108 14.94 82 47.61 0 47.61 0 20.39 43.6 33.28 58.33c16.33 18.67 58.33-14 58.33-14z"/>
    <path d="M81.31 33.88h10.45L95 23.55l3.24 10.33h10.45l-8.53 5.88 3.13 10L95 43.63l-8.28 6.13 3.12-10zM6.42 185.66v-5.33L0 172.92h4.11l4.13 5.1 4-5.1h4.1l-6.41 7.41v5.36zM22.58 172.87h3.51v7a10.44 10.44 0 0 0 .13 2.15 2.11 2.11 0 0 0 1.08 1.27 4.78 4.78 0 0 0 2.33.48 4.55 4.55 0 0 0 2.25-.44 1.85 1.85 0 0 0 .92-1.12 11 11 0 0 0 .15-2.19v-7.13h3.52v6.73a12.92 12.92 0 0 1-.29 3.28 3.31 3.31 0 0 1-1.05 1.6 5.48 5.48 0 0 1-2 1 11.91 11.91 0 0 1-3.36.39 13 13 0 0 1-3.79-.42 5.61 5.61 0 0 1-2-1.1 3.35 3.35 0 0 1-1-1.42 11.66 11.66 0 0 1-.34-3.26zM44.6 185.66v-12.79h5.28l3.19 8.73 3.11-8.73h5.31v12.79h-3.27V175.6l-3.44 10.06h-3.4l-3.5-10.06v10.06zM69.43 185.66v-12.79h12.93v2.15h-9.42v2.83h8.79V180h-8.79v3.51h9.76v2.15zM90.1 185.66v-12.79h5.29l3.18 8.73 3.11-8.73h5.31v12.79h-3.27V175.6l-3.44 10.06h-3.4l-3.47-10.06v10.06zM114.78 185.66v-12.79h3.52v12.79z"/>
</svg>